<svg width="512" height="512" viewBox="0 0 512 512" fill="none" xmlns="http://www.w3.org/2000/svg">
<path d="M255.5 45L429 144.059V366.941L255.5 466L82 366.941V144.059L255.5 45Z" fill="black" stroke="black" stroke-width="44" stroke-linejoin="round"/>
<path d="M255.5 45L429 144L255.5 243L82 144L255.5 45Z" fill="#2D2D2D" stroke="black" stroke-width="16" stroke-linejoin="round"/>
<path d="M82 144L256 243.077V466L82 366.923V144Z" fill="#141414" stroke="black" stroke-width="16" stroke-linejoin="round"/>
<path d="M256 243.077L429 144V366.923L256 466V243.077Z" fill="#1F1F1F" stroke="black" stroke-width="16" stroke-linejoin="round"/>
<path d="M319.695 137.203L276.32 112.417C271.258 109.525 264.393 107.9 257.235 107.9C250.076 107.9 243.211 109.525 238.15 112.417C233.088 115.31 230.244 119.232 230.244 123.323C230.244 127.413 233.088 131.336 238.15 134.229L272.85 154.057C277.911 156.95 280.755 160.872 280.755 164.963C280.755 169.053 277.911 172.976 272.85 175.869C267.788 178.761 260.923 180.386 253.765 180.386C246.606 180.386 239.741 178.761 234.68 175.869L191.305 151.083" stroke="white" stroke-width="20.9619" stroke-linecap="round" stroke-linejoin="round"/>
<path d="M177.425 166.946L158.34 156.04C156.424 154.945 153.317 154.945 151.4 156.04L147.93 158.023C146.014 159.118 146.014 160.893 147.93 161.989L167.015 172.894C168.932 173.989 172.039 173.989 173.955 172.894L177.425 170.911C179.342 169.816 179.342 168.041 177.425 166.946Z" fill="black"/>
<path d="M220.8 191.731L201.715 180.826C199.799 179.731 196.692 179.731 194.775 180.826L191.305 182.809C189.389 183.904 189.389 185.679 191.305 186.774L210.39 197.68C212.307 198.775 215.414 198.775 217.33 197.68L220.8 195.697C222.717 194.602 222.717 192.827 220.8 191.731Z" fill="black"/>
<path d="M149.665 227.423L120.17 210.569C114.421 207.283 109.76 210.612 109.76 218.004V267.08C109.76 274.472 114.421 283.128 120.17 286.413L149.665 303.267C155.414 306.552 160.075 303.223 160.075 295.831V246.756C160.075 239.364 155.414 230.708 149.665 227.423Z" fill="white"/>
<path d="M217.33 266.089L187.835 249.234C182.086 245.949 177.425 249.278 177.425 256.67V305.746C177.425 313.138 182.086 321.793 187.835 325.079L217.33 341.933C223.079 345.218 227.74 341.889 227.74 334.497V285.421C227.74 278.029 223.079 269.374 217.33 266.089Z" fill="white"/>
<path d="M121.905 352.591C129.571 356.971 135.785 352.532 135.785 342.676C135.785 332.821 129.571 321.28 121.905 316.899C114.239 312.519 108.025 316.958 108.025 326.814C108.025 336.67 114.239 348.21 121.905 352.591Z" fill="#FFCC00"/>
<path d="M206.176 397.205C213.842 401.585 220.056 397.147 220.056 387.291C220.056 377.435 213.842 365.894 206.176 361.514C198.511 357.133 192.296 361.572 192.296 371.428C192.296 381.284 198.511 392.825 206.176 397.205Z" fill="#FFCC00"/>
<path d="M377.242 233.63L317.916 267.53C312.876 270.41 308.789 280.735 308.789 290.591V361.974C308.789 371.83 312.876 377.485 317.916 374.604L377.242 340.704C382.283 337.824 386.369 327.499 386.369 317.643V246.26C386.369 236.404 382.283 230.749 377.242 233.63Z" fill="white"/>
<path d="M355.139 244.525L344.729 250.474V361.836L355.139 355.887V244.525Z" fill="#1F1F1F"/>
</svg>
