<svg width="176" height="53" viewBox="0 0 176 53" fill="none" xmlns="http://www.w3.org/2000/svg">
<g id="_&#231;&#185;&#157;&#239;&#189;&#172;&#231;&#185;&#167;&#239;&#189;&#164;&#231;&#185;&#157;&#239;&#189;&#164;&#231;&#185;&#157;&#239;&#189;&#188;_1" clip-path="url(#clip0_706_30)">
<path id="Vector" d="M26.4796 50.0512C39.4629 50.0512 49.9879 39.5128 49.9879 26.5131C49.9879 13.5133 39.4629 2.97491 26.4796 2.97491C13.4962 2.97491 2.97119 13.5133 2.97119 26.5131C2.97119 39.5128 13.4962 50.0512 26.4796 50.0512Z" fill="url(#paint0_linear_706_30)"/>
<path id="Vector_2" d="M26.4795 2.94879C39.4586 2.94879 49.9879 13.4914 49.9879 26.4869C49.9879 39.4825 39.4586 50.0251 26.4795 50.0251C13.5004 50.0251 2.94506 39.5086 2.94506 26.513C2.94506 13.4914 13.4743 2.94879 26.4795 2.94879ZM26.4795 0C11.8584 0 0 11.8735 0 26.513C0 41.1526 11.8584 53.0261 26.4795 53.0261C41.1005 53.0261 52.959 41.1526 52.959 26.513C52.959 11.8735 41.0745 0 26.4795 0Z" fill="#1E5E71"/>
<path id="Vector_3" d="M16.5908 9.91473L15.4456 13.2734L20.4772 14.9934L21.6224 11.6347L16.5908 9.91473Z" fill="white"/>
<path id="Vector_4" d="M13.1659 20.0126L12.0208 23.3712L17.0524 25.0912L18.1975 21.7325L13.1659 20.0126Z" fill="white"/>
<path id="Vector_5" d="M9.7265 30.0427L8.5813 33.4014L13.6129 35.1213L14.7581 31.7627L9.7265 30.0427Z" fill="white"/>
<path id="Vector_6" d="M10.5815 43.8666L11.2591 41.8572L7.61035 40.6046C8.49648 41.7789 9.48685 42.8749 10.5815 43.8666Z" fill="white"/>
<path id="Vector_7" d="M20.5112 9.39439L23.8212 10.5948L21.5798 17.223L18.2438 16.0748L17.097 19.4412L20.433 20.5894L18.1395 27.2959L14.8036 26.1477L13.6568 29.514L16.9928 30.6622L14.6993 37.3688L11.3633 36.2206L10.2166 39.613L13.5526 40.7612L12.067 45.0409C13.0313 45.7976 14.0477 46.4761 15.1163 47.0763L24.8376 18.5539L24.9158 18.3452L27.2614 11.4559L27.7566 9.99459L21.0585 7.69818L20.4852 9.36829L20.5112 9.39439Z" fill="white"/>
<path id="Vector_8" d="M48.0071 17.0665L30.3628 11.0123L17.6443 48.3289C29.6591 53.2349 43.368 47.4417 48.2677 35.4116C50.6655 29.5141 50.5612 22.8858 48.0071 17.0665Z" fill="white"/>
<path id="Vector_9" d="M69.1958 34.3156C71.1244 36.2467 73.7046 37.3949 76.4412 37.5515C77.614 37.6558 78.7607 37.2644 79.6208 36.4554C80.142 35.9074 80.4287 35.2029 80.4287 34.4461C80.4287 33.7154 80.0899 33.0108 79.5166 32.5411C78.2656 31.7321 76.8842 31.158 75.4247 30.8971L73.2876 30.2447C71.5936 29.775 70.0559 28.8877 68.8049 27.6612C67.5017 26.0955 66.8762 24.0862 67.0066 22.0507C66.8762 19.2063 67.9448 16.4402 69.8995 14.4047C72.0887 12.3432 75.0077 11.2733 78.0049 11.4037C81.4191 11.5081 84.7551 12.3693 87.7784 13.9872L84.5206 20.4067C83.035 19.0758 81.1064 18.3191 79.0996 18.2669C78.1352 18.2669 77.197 18.58 76.4412 19.2324C75.946 19.676 75.6593 20.2762 75.6332 20.9547C75.6072 21.4766 75.7375 21.9724 76.0502 22.39C76.8061 23.1467 77.7704 23.6425 78.8129 23.8252L81.3149 24.582C83.4781 25.0778 85.4588 26.1738 87.0486 27.7134C88.4821 29.227 89.2379 31.2885 89.0815 33.3762C89.2118 36.325 88.1432 39.1955 86.0843 41.3353C83.4259 43.997 80.0899 44.5711 76.7539 44.5711C74.6429 44.6233 72.5318 44.258 70.525 43.5273C68.8309 42.8749 67.2151 42.0399 65.7295 41.0222L69.1176 34.3678L69.1958 34.3156Z" fill="#334444"/>
<path id="Vector_10" d="M102.373 9.18561V30.2186L109.541 22.5204H119.835L109.853 32.3584L120.669 43.8144H110.088L102.347 35.1246V43.8144H94.7893V9.18561H102.373Z" fill="#334444"/>
<path id="Vector_11" d="M145.559 34.6026H129.687C129.687 35.9074 130.156 37.1861 131.016 38.1777C131.876 38.9345 132.997 39.2998 134.144 39.2215C135.004 39.2215 135.838 39.0128 136.594 38.6474C137.167 38.3082 137.61 37.8124 137.923 37.2122H145.168C144.725 38.8823 143.839 40.3958 142.588 41.5962C141.024 43.1098 138.626 44.545 133.961 44.545C130.73 44.7016 127.55 43.5273 125.178 41.3092C123.093 39.1694 121.973 36.2728 122.051 33.2718C121.946 30.2186 123.093 27.2437 125.23 25.0517C127.602 22.8858 130.73 21.7897 133.909 21.9724C136.906 21.8419 139.825 22.8857 142.067 24.869C144.412 27.2176 145.663 30.4795 145.533 33.7937V34.6026H145.559ZM138.574 30.2186C138.366 29.3574 137.949 28.5746 137.349 27.9483C136.489 27.1654 135.369 26.774 134.222 26.8001C133.075 26.7218 131.954 27.1393 131.147 27.9483C130.547 28.5746 130.156 29.3835 130 30.2186H138.6H138.574Z" fill="#334444"/>
<path id="Vector_12" d="M158.799 9.18561V24.6081C160.415 22.8336 162.708 21.8158 165.106 21.8419C167.868 21.7897 170.553 22.8075 172.586 24.6863C174.827 26.9045 176.052 29.9576 175.974 33.0891C176.026 36.2467 174.801 39.2998 172.56 41.5441C170.579 43.5012 167.895 44.5711 165.106 44.4928C162.63 44.545 160.284 43.4229 158.773 41.4658V43.7883H151.188V9.18561H158.773H158.799ZM166.748 36.6381C167.66 35.7769 168.181 34.5765 168.207 33.324C168.207 31.967 167.686 30.6883 166.748 29.7228C164.845 27.87 161.822 27.87 159.919 29.7228C159.085 30.6622 158.59 31.8626 158.512 33.1413C158.512 34.5244 159.111 35.8552 160.128 36.7947C161.04 37.6036 162.187 38.0733 163.386 38.1255C164.663 38.1255 165.862 37.5775 166.722 36.6642L166.748 36.6381Z" fill="#334444"/>
<path id="Vector_13" d="M94.7893 9.18561V16.7794L102.373 9.18561H94.7893Z" fill="#30B396"/>
<path id="Vector_14" d="M151.162 9.18561V16.7794L158.747 9.18561H151.162Z" fill="#30B396"/>
</g>
<defs>
<linearGradient id="paint0_linear_706_30" x1="9.85169" y1="9.83804" x2="43.1495" y2="43.0938" gradientUnits="userSpaceOnUse">
<stop offset="0.2" stop-color="#30B396"/>
<stop offset="1" stop-color="#1E5E71"/>
</linearGradient>
<clipPath id="clip0_706_30">
<rect width="176" height="53" fill="white"/>
</clipPath>
</defs>
</svg>
