<svg width="53" height="53" viewBox="0 0 53 53" fill="none" xmlns="http://www.w3.org/2000/svg">
<g id="_&#231;&#185;&#157;&#239;&#189;&#172;&#231;&#185;&#167;&#239;&#189;&#164;&#231;&#185;&#157;&#239;&#189;&#164;&#231;&#185;&#157;&#239;&#189;&#188;_1" clip-path="url(#clip0_706_30)">
<path id="Vector" d="M26.4796 50.0512C39.4629 50.0512 49.9879 39.5128 49.9879 26.5131C49.9879 13.5133 39.4629 2.97491 26.4796 2.97491C13.4962 2.97491 2.97119 13.5133 2.97119 26.5131C2.97119 39.5128 13.4962 50.0512 26.4796 50.0512Z" fill="url(#paint0_linear_706_30)"/>
<path id="Vector_2" d="M26.4795 2.94879C39.4586 2.94879 49.9879 13.4914 49.9879 26.4869C49.9879 39.4825 39.4586 50.0251 26.4795 50.0251C13.5004 50.0251 2.94506 39.5086 2.94506 26.513C2.94506 13.4914 13.4743 2.94879 26.4795 2.94879ZM26.4795 0C11.8584 0 0 11.8735 0 26.513C0 41.1526 11.8584 53.0261 26.4795 53.0261C41.1005 53.0261 52.959 41.1526 52.959 26.513C52.959 11.8735 41.0745 0 26.4795 0Z" fill="#1E5E71"/>
<path id="Vector_3" d="M16.5908 9.91473L15.4456 13.2734L20.4772 14.9934L21.6224 11.6347L16.5908 9.91473Z" fill="white"/>
<path id="Vector_4" d="M13.1659 20.0126L12.0208 23.3712L17.0524 25.0912L18.1975 21.7325L13.1659 20.0126Z" fill="white"/>
<path id="Vector_5" d="M9.7265 30.0427L8.5813 33.4014L13.6129 35.1213L14.7581 31.7627L9.7265 30.0427Z" fill="white"/>
<path id="Vector_6" d="M10.5815 43.8666L11.2591 41.8572L7.61035 40.6046C8.49648 41.7789 9.48685 42.8749 10.5815 43.8666Z" fill="white"/>
<path id="Vector_7" d="M20.5112 9.39439L23.8212 10.5948L21.5798 17.223L18.2438 16.0748L17.097 19.4412L20.433 20.5894L18.1395 27.2959L14.8036 26.1477L13.6568 29.514L16.9928 30.6622L14.6993 37.3688L11.3633 36.2206L10.2166 39.613L13.5526 40.7612L12.067 45.0409C13.0313 45.7976 14.0477 46.4761 15.1163 47.0763L24.8376 18.5539L24.9158 18.3452L27.2614 11.4559L27.7566 9.99459L21.0585 7.69818L20.4852 9.36829L20.5112 9.39439Z" fill="white"/>
<path id="Vector_8" d="M48.0071 17.0665L30.3628 11.0123L17.6443 48.3289C29.6591 53.2349 43.368 47.4417 48.2677 35.4116C50.6655 29.5141 50.5612 22.8858 48.0071 17.0665Z" fill="white"/>
</g>
<defs>
<linearGradient id="paint0_linear_706_30" x1="9.85169" y1="9.83804" x2="43.1495" y2="43.0938" gradientUnits="userSpaceOnUse">
<stop offset="0.2" stop-color="#30B396"/>
<stop offset="1" stop-color="#1E5E71"/>
</linearGradient>
<clipPath id="clip0_706_30">
<rect width="176" height="53" fill="white"/>
</clipPath>
</defs>
</svg>
